
<?xml version="1.0" encoding="UTF-8"?>
<svg version="1.1" xmlns="http://www.w3.org/2000/svg" width="500" height="500">
<path d="M0 0 C165 0 330 0 500 0 C500 165 500 330 500 500 C335 500 170 500 0 500 C0 335 0 170 0 0 Z " fill="#F9F9F9" transform="translate(0,0)"/>
<path d="M0 0 C11.93405202 6.51649367 19.12060434 14.36310768 23.41796875 27.3203125 C24.00578125 29.021875 24.00578125 29.021875 24.60546875 30.7578125 C25.33110245 33.93943721 25.59995155 36.76512346 25.79296875 40.0078125 C26.04113333 44.26910968 26.04113333 44.26910968 28.48046875 47.6953125 C29.11984375 48.2315625 29.75921875 48.7678125 30.41796875 49.3203125 C30.91796875 51.8203125 30.91796875 51.8203125 30.41796875 54.3203125 C28.66796875 56.6328125 28.66796875 56.6328125 26.41796875 58.3203125 C25.09796875 58.3203125 23.77796875 58.3203125 22.41796875 58.3203125 C22.37671875 59.3103125 22.33546875 60.3003125 22.29296875 61.3203125 C21.72816066 65.67109984 19.44000353 68.21013029 16.59765625 71.42578125 C15.24250082 73.23130853 15.24250082 73.23130853 15.4140625 75.3203125 C16.86833406 78.21753833 18.91932398 79.3529244 21.60546875 81.1328125 C34.35770334 90.17800215 37.50980042 101.95447037 41.91796875 116.3828125 C47.32466207 134.04467734 53.03085861 144.45768489 68.18359375 155.62109375 C78.06731257 163.18994158 80.40919799 173.72377757 82.5390625 185.37109375 C82.97412109 186.83095703 82.97412109 186.83095703 83.41796875 188.3203125 C84.40796875 188.6503125 85.39796875 188.9803125 86.41796875 189.3203125 C86.41796875 190.6403125 86.41796875 191.9603125 86.41796875 193.3203125 C85.75796875 193.3203125 85.09796875 193.3203125 84.41796875 193.3203125 C84.41796875 194.3103125 84.41796875 195.3003125 84.41796875 196.3203125 C85.07796875 196.3203125 85.73796875 196.3203125 86.41796875 196.3203125 C86.41796875 197.3103125 86.41796875 198.3003125 86.41796875 199.3203125 C81.96296875 200.3103125 81.96296875 200.3103125 77.41796875 201.3203125 C77.08796875 202.6403125 76.75796875 203.9603125 76.41796875 205.3203125 C73.70230944 208.03597181 71.41808531 208.09244177 67.66796875 208.8203125 C64.1314622 209.51256485 60.78792366 210.18743464 57.39453125 211.40625 C53.9693402 212.45808032 51.11707535 212.51825345 47.54296875 212.4453125 C46.39054688 212.42726563 45.238125 212.40921875 44.05078125 212.390625 C43.18195313 212.36742187 42.313125 212.34421875 41.41796875 212.3203125 C41.97677734 211.63195312 41.97677734 211.63195312 42.546875 210.9296875 C43.01996094 210.31609375 43.49304688 209.7025 43.98046875 209.0703125 C44.45613281 208.46703125 44.93179688 207.86375 45.421875 207.2421875 C46.64685973 205.34219696 46.64685973 205.34219696 46.0703125 203.0859375 C45.85503906 202.50328125 45.63976562 201.920625 45.41796875 201.3203125 C44.40476562 201.30613281 43.3915625 201.29195312 42.34765625 201.27734375 C30.16289526 200.92812319 30.16289526 200.92812319 26.85546875 198.4453125 C24.01452192 194.80307297 21.90870812 191.024245 19.80859375 186.91796875 C18.30047548 184.10083771 16.46713879 181.7635537 14.41796875 179.3203125 C14.41796875 178.6603125 14.41796875 178.0003125 14.41796875 177.3203125 C8.65032008 178.45324349 3.0833741 179.98823259 -2.51953125 181.7578125 C-3.56270508 182.08519409 -3.56270508 182.08519409 -4.62695312 182.41918945 C-7.61606406 183.36224973 -10.59202822 184.32376743 -13.5546875 185.34765625 C-22.50411831 188.34924278 -28.90066432 186.51553783 -37.58203125 183.3203125 C-42.83840784 191.40704572 -47.18333649 199.25167984 -50.58203125 208.3203125 C-53.2906379 208.37460528 -55.99814026 208.41412461 -58.70703125 208.4453125 C-59.84785156 208.47044922 -59.84785156 208.47044922 -61.01171875 208.49609375 C-65.63808715 208.53597624 -69.21133701 208.01678937 -73.58203125 206.3203125 C-76.62482497 205.65350882 -76.62482497 205.65350882 -79.58203125 206.3203125 C-80.24203125 207.3309375 -80.90203125 208.3415625 -81.58203125 209.3828125 C-82.75 211.05078125 -82.75 211.05078125 -84.58203125 212.3203125 C-89.32940149 212.56390618 -93.88887036 212.01888855 -98.58203125 211.3203125 C-98.58203125 210.6603125 -98.58203125 210.0003125 -98.58203125 209.3203125 C-99.69578125 209.3615625 -100.80953125 209.4028125 -101.95703125 209.4453125 C-105.58203125 209.3203125 -105.58203125 209.3203125 -107.58203125 207.3203125 C-107.58203125 206.3303125 -107.58203125 205.3403125 -107.58203125 204.3203125 C-110.55203125 203.3303125 -113.52203125 202.3403125 -116.58203125 201.3203125 C-116.58203125 192.3203125 -116.58203125 192.3203125 -114.58203125 190.3203125 C-113.04822617 186.58166261 -112.33425744 182.91224305 -111.70703125 178.9453125 C-109.16401965 164.86386021 -99.12951426 155.85536894 -88.02734375 147.48828125 C-83.05569341 143.08050818 -80.87425125 138.02562741 -79.08203125 131.7578125 C-78.76794312 130.7061792 -78.76794312 130.7061792 -78.44750977 129.63330078 C-78.02133384 128.20602419 -77.5988445 126.77764126 -77.18017578 125.34814453 C-76.32635219 122.45350831 -75.42069687 119.57550851 -74.51953125 116.6953125 C-73.4868127 113.36995877 -72.51073178 110.05047589 -71.62109375 106.68359375 C-67.89498388 92.65851619 -61.86034896 84.99426107 -49.58203125 77.3203125 C-51.38646887 73.61025384 -53.45669169 70.08678158 -55.55859375 66.5390625 C-56.58203125 64.3203125 -56.58203125 64.3203125 -56.58203125 60.3203125 C-58.00515625 60.165625 -58.00515625 60.165625 -59.45703125 60.0078125 C-62.58203125 59.3203125 -62.58203125 59.3203125 -64.58203125 56.3203125 C-64.89453125 53.3828125 -64.89453125 53.3828125 -64.58203125 50.3203125 C-63.85886719 49.48693359 -63.85886719 49.48693359 -63.12109375 48.63671875 C-60.93880112 45.35220217 -60.92895711 42.02334996 -60.64453125 38.1953125 C-60.01001698 31.49575647 -59.07956305 25.22239742 -55.58203125 19.3203125 C-54.92203125 18.9903125 -54.26203125 18.6603125 -53.58203125 18.3203125 C-53.91203125 22.6103125 -54.24203125 26.9003125 -54.58203125 31.3203125 C-52.54015625 31.0315625 -50.49828125 30.7428125 -48.39453125 30.4453125 C-47.24597656 30.28289062 -46.09742188 30.12046875 -44.9140625 29.953125 C-40.71588548 29.15581588 -37.63152673 28.36980798 -34.58203125 25.3203125 C-33.91385936 21.60824645 -33.9247504 19.28821432 -36.078125 16.1171875 C-39.39341092 12.18187546 -39.39341092 12.18187546 -43.58203125 9.3203125 C-43.44921875 7.0234375 -43.44921875 7.0234375 -42.58203125 4.3203125 C-39.96484375 2.5546875 -39.96484375 2.5546875 -36.70703125 1.0703125 C-35.63710937 0.57015625 -34.5671875 0.07 -33.46484375 -0.4453125 C-23.62027652 -4.66060145 -9.77447315 -4.33410748 0 0 Z " fill="#F2900F" transform="translate(257.58203125,80.6796875)"/>
<path d="M0 0 C7.47423168 2.39967969 15.66829352 9.02008814 19.65234375 15.8515625 C23.09985505 23.66177496 25.66065535 31.75853623 28.15234375 39.9140625 C33.55903707 57.57592734 39.26523361 67.98893489 54.41796875 79.15234375 C64.30168757 86.72119158 66.64357299 97.25502757 68.7734375 108.90234375 C69.06347656 109.87558594 69.35351562 110.84882813 69.65234375 111.8515625 C70.64234375 112.1815625 71.63234375 112.5115625 72.65234375 112.8515625 C72.65234375 114.1715625 72.65234375 115.4915625 72.65234375 116.8515625 C71.99234375 116.8515625 71.33234375 116.8515625 70.65234375 116.8515625 C70.65234375 117.8415625 70.65234375 118.8315625 70.65234375 119.8515625 C71.31234375 119.8515625 71.97234375 119.8515625 72.65234375 119.8515625 C72.65234375 120.8415625 72.65234375 121.8315625 72.65234375 122.8515625 C68.19734375 123.8415625 68.19734375 123.8415625 63.65234375 124.8515625 C63.32234375 126.1715625 62.99234375 127.4915625 62.65234375 128.8515625 C59.93668444 131.56722181 57.65246031 131.62369177 53.90234375 132.3515625 C50.3658372 133.04381485 47.02229866 133.71868464 43.62890625 134.9375 C40.2037152 135.98933032 37.35145035 136.04950345 33.77734375 135.9765625 C32.62492187 135.95851563 31.4725 135.94046875 30.28515625 135.921875 C29.41632813 135.89867187 28.5475 135.87546875 27.65234375 135.8515625 C28.02488281 135.39265625 28.39742188 134.93375 28.78125 134.4609375 C29.25433594 133.84734375 29.72742188 133.23375 30.21484375 132.6015625 C30.69050781 131.99828125 31.16617188 131.395 31.65625 130.7734375 C32.88123473 128.87344696 32.88123473 128.87344696 32.3046875 126.6171875 C32.08941406 126.03453125 31.87414062 125.451875 31.65234375 124.8515625 C30.63914062 124.83738281 29.6259375 124.82320313 28.58203125 124.80859375 C16.39727026 124.45937319 16.39727026 124.45937319 13.08984375 121.9765625 C10.24889692 118.33432297 8.14308312 114.555495 6.04296875 110.44921875 C4.53485048 107.63208771 2.70151379 105.2948037 0.65234375 102.8515625 C0.65234375 102.1915625 0.65234375 101.5315625 0.65234375 100.8515625 C-5.11530492 101.98449349 -10.6822509 103.51948259 -16.28515625 105.2890625 C-16.98060547 105.50731689 -17.67605469 105.72557129 -18.39257812 105.95043945 C-21.38168906 106.89349973 -24.35765322 107.85501743 -27.3203125 108.87890625 C-36.26974331 111.88049278 -42.66628932 110.04678783 -51.34765625 106.8515625 C-56.60403284 114.93829572 -60.94896149 122.78292984 -64.34765625 131.8515625 C-83.30361873 132.44531074 -83.30361873 132.44531074 -91.34765625 128.8515625 C-93.32736608 126.87185267 -92.71375222 123.07234596 -92.84765625 120.3515625 C-93.17077319 114.48715323 -93.61882391 108.68222125 -94.34765625 102.8515625 C-90.87088908 103.26546335 -88.40223637 103.82260162 -85.28515625 105.4765625 C-81.87319669 107.07364995 -80.84369309 107.08195066 -77.34765625 105.8515625 C-75.48369355 103.71876616 -75.48369355 103.71876616 -74.09765625 101.0390625 C-73.5975 100.16636719 -73.09734375 99.29367187 -72.58203125 98.39453125 C-70.43990865 93.98148755 -70.12697221 89.98464767 -69.78515625 85.1015625 C-69.70136719 83.93109375 -69.61757812 82.760625 -69.53125 81.5546875 C-69.44037109 80.21664062 -69.44037109 80.21664062 -69.34765625 78.8515625 C-60.95001523 79.71054059 -52.84183754 80.86723737 -44.66015625 82.9765625 C-28.11631045 87.11346202 -14.75152126 83.43661322 0.6862793 77.18920898 C6.46749498 74.8515625 6.46749498 74.8515625 8.65234375 74.8515625 C6.52819703 60.69058439 3.68502194 52.24789571 -5.16015625 40.76953125 C-7.01838058 38.29079273 -8.68689649 35.8135586 -10.28515625 33.1640625 C-11.96294423 29.82604436 -11.96294423 29.82604436 -14.34765625 28.8515625 C-14.67765625 30.5015625 -15.00765625 32.1515625 -15.34765625 33.8515625 C-16.33765625 33.8515625 -17.32765625 33.8515625 -18.34765625 33.8515625 C-18.67765625 35.1715625 -19.00765625 36.4915625 -19.34765625 37.8515625 C-20.66765625 37.8515625 -21.98765625 37.8515625 -23.34765625 37.8515625 C-23.67765625 38.8415625 -24.00765625 39.8315625 -24.34765625 40.8515625 C-25.97256579 40.87854439 -27.59760258 40.89795007 -29.22265625 40.9140625 C-30.12757813 40.92566406 -31.0325 40.93726563 -31.96484375 40.94921875 C-34.34765625 40.8515625 -34.34765625 40.8515625 -36.34765625 39.8515625 C-36.34765625 39.1915625 -36.34765625 38.5315625 -36.34765625 37.8515625 C-37.66765625 37.5215625 -38.98765625 37.1915625 -40.34765625 36.8515625 C-40.84265625 34.8715625 -40.84265625 34.8715625 -41.34765625 32.8515625 C-42.27578125 32.75875 -42.27578125 32.75875 -43.22265625 32.6640625 C-45.34765625 31.8515625 -45.34765625 31.8515625 -46.66015625 29.7265625 C-47.51160118 26.16597459 -47.04682278 23.41731181 -46.34765625 19.8515625 C-45.35765625 20.1815625 -44.36765625 20.5115625 -43.34765625 20.8515625 C-43.34765625 22.5015625 -43.34765625 24.1515625 -43.34765625 25.8515625 C-42.35765625 25.8515625 -41.36765625 25.8515625 -40.34765625 25.8515625 C-39.85265625 27.3365625 -39.85265625 27.3365625 -39.34765625 28.8515625 C-38.35765625 29.1815625 -37.36765625 29.5115625 -36.34765625 29.8515625 C-36.34765625 30.8415625 -36.34765625 31.8315625 -36.34765625 32.8515625 C-30.2592655 34.05929669 -30.2592655 34.05929669 -24.47265625 32.4140625 C-23.42078125 31.640625 -23.42078125 31.640625 -22.34765625 30.8515625 C-21.35765625 30.8515625 -20.36765625 30.8515625 -19.34765625 30.8515625 C-19.01765625 29.2015625 -18.68765625 27.5515625 -18.34765625 25.8515625 C-17.68765625 25.8515625 -17.02765625 25.8515625 -16.34765625 25.8515625 C-16.24415808 19.43467575 -16.60258081 13.22461848 -17.34765625 6.8515625 C-16.51621094 6.51382813 -15.68476563 6.17609375 -14.828125 5.828125 C-13.74144531 5.38210937 -12.65476562 4.93609375 -11.53515625 4.4765625 C-9.91673828 3.81527344 -9.91673828 3.81527344 -8.265625 3.140625 C-1.01160586 -0.06396177 -1.01160586 -0.06396177 0 0 Z " fill="#F2910F" transform="translate(271.34765625,157.1484375)"/>
<path d="M0 0 C1.94140625 1.87109375 1.94140625 1.87109375 3.5625 4.4375 C4.44035156 5.79875 4.44035156 5.79875 5.3359375 7.1875 C7.25677077 10.43397876 9.07713685 13.71455419 10.76171875 17.08984375 C12.31464294 19.48536403 13.48200222 20.61657744 16 22 C18.60255907 22.31896874 21.0202033 22.51010466 23.625 22.5625 C30.74453353 22.74453353 30.74453353 22.74453353 33 25 C32.73441476 28.85098598 30.43956652 31.16695501 28 34 C37.39174748 34.6192361 45.09744467 32.86639267 54 30 C55.87751953 29.56300781 55.87751953 29.56300781 57.79296875 29.1171875 C61.09244643 28.36493754 61.09244643 28.36493754 62.1484375 25.953125 C62.42945313 25.30859375 62.71046875 24.6640625 63 24 C65.1640625 23.171875 65.1640625 23.171875 67.625 22.75 C68.44226563 22.60046875 69.25953125 22.4509375 70.1015625 22.296875 C70.72804688 22.19890625 71.35453125 22.1009375 72 22 C72 21.01 72 20.02 72 19 C71.34 19 70.68 19 70 19 C70 18.01 70 17.02 70 16 C70.66 16 71.32 16 72 16 C72 14.68 72 13.36 72 12 C71.01 11.67 70.02 11.34 69 11 C113.47553236 14.61331265 113.47553236 14.61331265 124 24 C124.875 26.75 124.875 26.75 125 29 C120.59306371 32.23312616 116.4086464 34.10280137 111.125 35.5625 C110.00254883 35.87936768 110.00254883 35.87936768 108.85742188 36.20263672 C93.1744703 40.51313626 77.13763243 42.30299449 61 44 C60.07600403 44.09834641 59.15200806 44.19669281 58.20001221 44.29801941 C33.88647195 46.74848094 9.41924405 46.34019962 -14.98632812 46.31567383 C-19.98121153 46.31104833 -24.97585112 46.31795285 -29.97070312 46.33618164 C-70.90212944 46.48421334 -112.70151488 46.60556535 -152.6875 36.5625 C-153.42363525 36.38154785 -154.15977051 36.2005957 -154.91821289 36.01416016 C-160.06428091 34.60626796 -164.89835047 32.48018748 -169 29 C-169.5 26.1875 -169.5 26.1875 -169 24 C-157.70075067 16.80956861 -142.41418703 12.58978021 -129 13 C-129.5259375 14.11375 -129.5259375 14.11375 -130.0625 15.25 C-131.06311592 18.18514002 -130.98017492 19.15749274 -130 22 C-130 22.66 -130 23.32 -130 24 C-129.05125 24.309375 -128.1025 24.61875 -127.125 24.9375 C-124 26 -124 26 -122 27 C-121.6596875 27.99 -121.6596875 27.99 -121.3125 29 C-120.879375 29.66 -120.44625 30.32 -120 31 C-116.43793339 31.81870185 -116.43793339 31.81870185 -113 32 C-113 32.66 -113 33.32 -113 34 C-104.71258894 35.10463226 -104.71258894 35.10463226 -97.2734375 32.62890625 C-96.91507812 32.07074219 -96.55671875 31.51257813 -96.1875 30.9375 C-95.465625 29.968125 -94.74375 28.99875 -94 28 C-89.78197902 27.59107157 -85.97414237 28.67528588 -82 30 C-80.66636297 30.14403348 -79.32781954 30.24590423 -77.98828125 30.31640625 C-77.23095703 30.35830078 -76.47363281 30.40019531 -75.69335938 30.44335938 C-74.51483398 30.50233398 -74.51483398 30.50233398 -73.3125 30.5625 C-72.51521484 30.60568359 -71.71792969 30.64886719 -70.89648438 30.69335938 C-68.93118553 30.79927368 -66.96561504 30.90012551 -65 31 C-64.443125 29.1128125 -64.443125 29.1128125 -63.875 27.1875 C-61.20915615 19.17733413 -56.8378082 11.88457321 -52 5 C-51.443125 5.20496094 -50.88625 5.40992188 -50.3125 5.62109375 C-40.57723875 9.05803564 -34.77238392 9.38136474 -25 6 C-21.75592035 4.91887941 -18.50359193 3.86457637 -15.25 2.8125 C-14.02543091 2.40149048 -14.02543091 2.40149048 -12.77612305 1.98217773 C-4.37109528 -0.74896167 -4.37109528 -0.74896167 0 0 Z " fill="#D9D8D8" transform="translate(272,258)"/>
<path d="M0 0 C11.93405202 6.51649367 19.12060434 14.36310768 23.41796875 27.3203125 C24.00578125 29.021875 24.00578125 29.021875 24.60546875 30.7578125 C25.33110245 33.93943721 25.59995155 36.76512346 25.79296875 40.0078125 C26.04113333 44.26910968 26.04113333 44.26910968 28.48046875 47.6953125 C29.11984375 48.2315625 29.75921875 48.7678125 30.41796875 49.3203125 C30.91796875 51.8203125 30.91796875 51.8203125 30.41796875 54.3203125 C28.66796875 56.6328125 28.66796875 56.6328125 26.41796875 58.3203125 C25.09796875 58.3203125 23.77796875 58.3203125 22.41796875 58.3203125 C22.37671875 59.3103125 22.33546875 60.3003125 22.29296875 61.3203125 C21.71498993 65.62888187 19.51845684 68.24761047 16.79296875 71.5234375 C15.21692915 73.38112313 15.21692915 73.38112313 14.41796875 76.3203125 C12.125 77.63671875 12.125 77.63671875 9.23046875 78.8828125 C8.28816406 79.29660156 7.34585938 79.71039063 6.375 80.13671875 C3.42091538 81.31913307 0.44662121 82.34665682 -2.58203125 83.3203125 C-2.49824219 84.27292969 -2.41445312 85.22554688 -2.328125 86.20703125 C-2.17537109 88.08841797 -2.17537109 88.08841797 -2.01953125 90.0078125 C-1.86291016 91.86986328 -1.86291016 91.86986328 -1.703125 93.76953125 C-1.59709284 96.87866783 -1.809746 99.32842222 -2.58203125 102.3203125 C-3.24203125 102.3203125 -3.90203125 102.3203125 -4.58203125 102.3203125 C-4.56140625 103.0628125 -4.54078125 103.8053125 -4.51953125 104.5703125 C-5.81368595 107.91988938 -6.66767903 108.19447546 -9.83203125 109.6953125 C-13.46647143 111.13178172 -15.81329548 111.76129971 -19.58203125 110.3203125 C-20.57203125 109.9903125 -21.56203125 109.6603125 -22.58203125 109.3203125 C-22.58203125 108.3303125 -22.58203125 107.3403125 -22.58203125 106.3203125 C-23.90203125 105.9903125 -25.22203125 105.6603125 -26.58203125 105.3203125 C-26.58203125 104.3303125 -26.58203125 103.3403125 -26.58203125 102.3203125 C-27.57203125 102.3203125 -28.56203125 102.3203125 -29.58203125 102.3203125 C-31.41058553 97.72798915 -31.70717587 94.34672982 -31.20703125 89.4453125 C-31.09617188 88.29289062 -30.9853125 87.14046875 -30.87109375 85.953125 C-30.77570313 85.08429688 -30.6803125 84.21546875 -30.58203125 83.3203125 C-31.97421875 83.2275 -31.97421875 83.2275 -33.39453125 83.1328125 C-40.06142922 82.09153229 -46.30851066 79.94084413 -50.80859375 74.75390625 C-53.9832019 69.95280133 -55.88639332 66.08053391 -56.58203125 60.3203125 C-57.53078125 60.2171875 -58.47953125 60.1140625 -59.45703125 60.0078125 C-62.58203125 59.3203125 -62.58203125 59.3203125 -64.58203125 56.3203125 C-64.89453125 53.3828125 -64.89453125 53.3828125 -64.58203125 50.3203125 C-63.85886719 49.48693359 -63.85886719 49.48693359 -63.12109375 48.63671875 C-60.93880112 45.35220217 -60.92895711 42.02334996 -60.64453125 38.1953125 C-60.01001698 31.49575647 -59.07956305 25.22239742 -55.58203125 19.3203125 C-54.92203125 18.9903125 -54.26203125 18.6603125 -53.58203125 18.3203125 C-53.91203125 22.6103125 -54.24203125 26.9003125 -54.58203125 31.3203125 C-52.54015625 31.0315625 -50.49828125 30.7428125 -48.39453125 30.4453125 C-47.24597656 30.28289062 -46.09742188 30.12046875 -44.9140625 29.953125 C-40.71588548 29.15581588 -37.63152673 28.36980798 -34.58203125 25.3203125 C-33.91385936 21.60824645 -33.9247504 19.28821432 -36.078125 16.1171875 C-39.39341092 12.18187546 -39.39341092 12.18187546 -43.58203125 9.3203125 C-43.44921875 7.0234375 -43.44921875 7.0234375 -42.58203125 4.3203125 C-39.96484375 2.5546875 -39.96484375 2.5546875 -36.70703125 1.0703125 C-35.63710937 0.57015625 -34.5671875 0.07 -33.46484375 -0.4453125 C-23.62027652 -4.66060145 -9.77447315 -4.33410748 0 0 Z " fill="#F2BC99" transform="translate(257.58203125,80.6796875)"/>
<path d="M0 0 C0.09796875 1.03898438 0.1959375 2.07796875 0.296875 3.1484375 C1.88738286 18.75617779 1.88738286 18.75617779 11 31 C11.66 30.731875 12.32 30.46375 13 30.1875 C15.39251162 29.24046415 17.7856929 28.29809891 20.1875 27.375 C21.19876953 26.98441406 21.19876953 26.98441406 22.23046875 26.5859375 C24 26 24 26 26 26 C25.98428955 26.76143311 25.9685791 27.52286621 25.95239258 28.30737305 C25.88991547 31.7673394 25.85096828 35.2271869 25.8125 38.6875 C25.78736328 39.88568359 25.76222656 41.08386719 25.73632812 42.31835938 C25.72666016 43.47529297 25.71699219 44.63222656 25.70703125 45.82421875 C25.6913208 46.88729248 25.67561035 47.95036621 25.65942383 49.0456543 C26.20310973 53.76188589 28.54076939 56.87021992 32 60 C31 61 31 61 28.05859375 61.09765625 C26.86363281 61.08605469 25.66867187 61.07445312 24.4375 61.0625 C22.64119141 61.04896484 22.64119141 61.04896484 20.80859375 61.03515625 C19.88175781 61.02355469 18.95492187 61.01195312 18 61 C18.37253906 60.54109375 18.74507813 60.0821875 19.12890625 59.609375 C19.83853516 58.68898438 19.83853516 58.68898438 20.5625 57.75 C21.03816406 57.14671875 21.51382813 56.5434375 22.00390625 55.921875 C23.22889098 54.02188446 23.22889098 54.02188446 22.65234375 51.765625 C22.43707031 51.18296875 22.22179687 50.6003125 22 50 C20.98679687 49.98582031 19.97359375 49.97164063 18.9296875 49.95703125 C6.74492651 49.60781069 6.74492651 49.60781069 3.4375 47.125 C0.59655317 43.48276047 -1.50926063 39.7039325 -3.609375 35.59765625 C-5.11749327 32.78052521 -6.95082996 30.4432412 -9 28 C-9 27.34 -9 26.68 -9 26 C-14.76764867 27.13293099 -20.33459465 28.66792009 -25.9375 30.4375 C-26.63294922 30.65575439 -27.32839844 30.87400879 -28.04492188 31.09887695 C-31.03403281 32.04193723 -34.00999697 33.00345493 -36.97265625 34.02734375 C-45.92208706 37.02893028 -52.31863307 35.19522533 -61 32 C-66.25637659 40.08673322 -70.60130524 47.93136734 -74 57 C-92.95596248 57.59374824 -92.95596248 57.59374824 -101 54 C-102.97970983 52.02029017 -102.36609597 48.22078346 -102.5 45.5 C-102.82311694 39.63559073 -103.27116766 33.83065875 -104 28 C-100.52323283 28.41390085 -98.05458012 28.97103912 -94.9375 30.625 C-91.52554044 32.22208745 -90.49603684 32.23038816 -87 31 C-85.1360373 28.86720366 -85.1360373 28.86720366 -83.75 26.1875 C-83.24984375 25.31480469 -82.7496875 24.44210937 -82.234375 23.54296875 C-80.0922524 19.12992505 -79.77931596 15.13308517 -79.4375 10.25 C-79.35371094 9.07953125 -79.26992187 7.9090625 -79.18359375 6.703125 C-79.09271484 5.36507812 -79.09271484 5.36507812 -79 4 C-70.60235898 4.85897809 -62.49418129 6.01567487 -54.3125 8.125 C-37.80764899 12.25214861 -24.44104683 8.63086141 -9.05395508 2.33764648 C-7.94250122 1.88627319 -7.94250122 1.88627319 -6.80859375 1.42578125 C-6.14657959 1.15161377 -5.48456543 0.87744629 -4.80249023 0.5949707 C-3 0 -3 0 0 0 Z " fill="#C74F23" transform="translate(281,232)"/>
<path d="M0 0 C0.99 0.33 1.98 0.66 3 1 C3 2.32 3 3.64 3 5 C3.61875 5.0825 4.2375 5.165 4.875 5.25 C7 6 7 6 8.0625 8 C8.5265625 8.99 8.5265625 8.99 9 10 C9.99 10.33 10.98 10.66 12 11 C12 11.66 12 12.32 12 13 C15.96 13 19.92 13 24 13 C24.33 12.34 24.66 11.68 25 11 C25.66 10.855625 26.32 10.71125 27 10.5625 C27.66 10.376875 28.32 10.19125 29 10 C29.33 9.01 29.66 8.02 30 7 C30.99 7 31.98 7 33 7 C33.33 5.35 33.66 3.7 34 2 C38.35216391 3.49329326 40.05643798 6.74861809 42.3125 10.5 C44.99495319 14.86162664 47.73147549 19.01129113 50.875 23.0625 C56.15357219 30.48434397 57.19073917 39.08013899 57 48 C33.52767839 57.79638586 17.62013205 60.79239852 -7.32177734 54.63378906 C-11.52474172 53.63917689 -15.75816054 52.81020681 -20 52 C-20.73115526 34.72307194 -14.92873323 24.15235812 -5.35546875 10.11328125 C-3.27563473 6.87065819 -1.64535101 3.48055021 0 0 Z " fill="#EFA47B" transform="translate(223,184)"/>
<path d="M0 0 C1.94140625 1.87109375 1.94140625 1.87109375 3.5625 4.4375 C4.44035156 5.79875 4.44035156 5.79875 5.3359375 7.1875 C7.25677077 10.43397876 9.07713685 13.71455419 10.76171875 17.08984375 C12.31464294 19.48536403 13.48200222 20.61657744 16 22 C18.60255907 22.31896874 21.0202033 22.51010466 23.625 22.5625 C30.74453353 22.74453353 30.74453353 22.74453353 33 25 C32.73441476 28.85098598 30.43956652 31.16695501 28 34 C29.98 34.33 31.96 34.66 34 35 C34 35.33 34 35.66 34 36 C31.36 36 28.72 36 26 36 C25.9175 36.61875 25.835 37.2375 25.75 37.875 C25 40 25 40 23.22265625 41.14453125 C20.74022321 42.09998439 19.31003143 42.13391149 16.6875 41.8125 C15.96949219 41.73644531 15.25148438 41.66039062 14.51171875 41.58203125 C12 41 12 41 8.86083984 39.51855469 C4.82889508 37.76856104 1.06906141 37.38298237 -3.28515625 37.12109375 C-4.45237465 37.03469383 -4.45237465 37.03469383 -5.64317322 36.94654846 C-8.11561736 36.76525866 -10.58878098 36.60038161 -13.0625 36.4375 C-16.30388577 36.213723 -19.54466074 35.98239873 -22.78515625 35.74609375 C-23.57853394 35.68919373 -24.37191162 35.6322937 -25.18933105 35.57366943 C-29.91577045 35.21648835 -34.56670935 34.67549701 -39.25390625 33.94921875 C-46.45518529 32.84612206 -53.59933963 32.55977868 -60.875 32.375 C-62.14730469 32.33632813 -63.41960937 32.29765625 -64.73046875 32.2578125 C-67.82018089 32.16488883 -70.90990687 32.07903545 -74 32 C-74 31.67 -74 31.34 -74 31 C-71.03 31 -68.06 31 -65 31 C-64.62875 29.741875 -64.2575 28.48375 -63.875 27.1875 C-61.20915615 19.17733413 -56.8378082 11.88457321 -52 5 C-51.443125 5.20496094 -50.88625 5.40992188 -50.3125 5.62109375 C-40.57723875 9.05803564 -34.77238392 9.38136474 -25 6 C-21.75592035 4.91887941 -18.50359193 3.86457637 -15.25 2.8125 C-14.43362061 2.53849365 -13.61724121 2.2644873 -12.77612305 1.98217773 C-4.37109528 -0.74896167 -4.37109528 -0.74896167 0 0 Z " fill="#EEA67F" transform="translate(272,258)"/>
<path d="M0 0 C11.93405202 6.51649367 19.12060434 14.36310768 23.41796875 27.3203125 C24.00578125 29.021875 24.00578125 29.021875 24.60546875 30.7578125 C25.33110245 33.93943721 25.59995155 36.76512346 25.79296875 40.0078125 C26.04113333 44.26910968 26.04113333 44.26910968 28.48046875 47.6953125 C29.11984375 48.2315625 29.75921875 48.7678125 30.41796875 49.3203125 C30.91796875 51.8203125 30.91796875 51.8203125 30.41796875 54.3203125 C28.66796875 56.6328125 28.66796875 56.6328125 26.41796875 58.3203125 C25.09796875 58.3203125 23.77796875 58.3203125 22.41796875 58.3203125 C22.37671875 59.3103125 22.33546875 60.3003125 22.29296875 61.3203125 C21.71498993 65.62888187 19.51845684 68.24761047 16.79296875 71.5234375 C15.21692915 73.38112313 15.21692915 73.38112313 14.41796875 76.3203125 C12.125 77.63671875 12.125 77.63671875 9.23046875 78.8828125 C8.28816406 79.29660156 7.34585938 79.71039063 6.375 80.13671875 C3.42091538 81.31913307 0.44662121 82.34665682 -2.58203125 83.3203125 C-2.49824219 84.27292969 -2.41445312 85.22554688 -2.328125 86.20703125 C-2.17537109 88.08841797 -2.17537109 88.08841797 -2.01953125 90.0078125 C-1.86291016 91.86986328 -1.86291016 91.86986328 -1.703125 93.76953125 C-1.59709284 96.87866783 -1.809746 99.32842222 -2.58203125 102.3203125 C-3.24203125 102.3203125 -3.90203125 102.3203125 -4.58203125 102.3203125 C-4.56140625 103.0628125 -4.54078125 103.8053125 -4.51953125 104.5703125 C-5.81368595 107.91988938 -6.66767903 108.19447546 -9.83203125 109.6953125 C-13.46647143 111.13178172 -15.81329548 111.76129971 -19.58203125 110.3203125 C-21.06703125 109.8253125 -21.06703125 109.8253125 -22.58203125 109.3203125 C-22.58203125 108.3303125 -22.58203125 107.3403125 -22.58203125 106.3203125 C-23.90203125 105.9903125 -25.22203125 105.6603125 -26.58203125 105.3203125 C-26.58203125 104.3303125 -26.58203125 103.3403125 -26.58203125 102.3203125 C-27.57203125 102.3203125 -28.56203125 102.3203125 -29.58203125 102.3203125 C-31.41058553 97.72798915 -31.70717587 94.34672982 -31.20703125 89.4453125 C-31.09617188 88.29289062 -30.9853125 87.14046875 -30.87109375 85.953125 C-30.77570313 85.08429688 -30.6803125 84.21546875 -30.58203125 83.3203125 C-32.22171875 83.1346875 -32.22171875 83.1346875 -33.89453125 82.9453125 C-37.58203125 82.3203125 -37.58203125 82.3203125 -40.58203125 80.3203125 C-35.93747164 79.39140058 -31.62368717 79.27627911 -26.89453125 79.3828125 C-15.83833773 79.46639884 -6.5246004 78.46183882 2.41796875 71.3203125 C10.76122697 62.3379227 12.06986258 52.93344596 11.83203125 40.99609375 C11.20047932 30.15748137 6.6380714 18.18419782 -1.35546875 10.6484375 C-1.88398438 10.29265625 -2.4125 9.936875 -2.95703125 9.5703125 C-3.74207031 9.02117187 -3.74207031 9.02117187 -4.54296875 8.4609375 C-10.90263198 4.90342474 -16.31581903 3.72992629 -23.51953125 3.1328125 C-24.39416016 3.05095703 -25.26878906 2.96910156 -26.16992188 2.88476562 C-28.30635848 2.68629884 -30.44409009 2.50185596 -32.58203125 2.3203125 C-31.92203125 1.9903125 -31.26203125 1.6603125 -30.58203125 1.3203125 C-30.58203125 0.3303125 -30.58203125 -0.6596875 -30.58203125 -1.6796875 C-21.52124035 -4.69995113 -8.63632763 -3.8294414 0 0 Z " fill="#EDA57F" transform="translate(257.58203125,80.6796875)"/>
<path d="M0 0 C3.7533729 4.03487587 5.29660987 7.64149064 5.6640625 13.14453125 C5.44059118 18.73990919 3.89808167 22.45209381 0.55859375 26.8984375 C-6.10411767 32.6888015 -12.41566727 33.22810204 -21 32.9375 C-24.465 32.855 -27.93 32.7725 -31.5 32.6875 C-31.5 19.8175 -31.5 6.9475 -31.5 -6.3125 C-18.65152061 -7.74010882 -10.71743768 -7.83812606 0 0 Z " fill="#CA5E34" transform="translate(74.5,322.3125)"/>
<path d="M0 0 C0.33 0 0.66 0 1 0 C1.33 1.98 1.66 3.96 2 6 C3.313702 5.3566152 4.62592898 4.71021785 5.9375 4.0625 C7.03384766 3.52302734 7.03384766 3.52302734 8.15234375 2.97265625 C9.96249027 2.13628173 9.96249027 2.13628173 11 1 C13.42827613 0.89931538 15.82198411 0.8612824 18.25 0.875 C18.91902344 0.87113281 19.58804688 0.86726563 20.27734375 0.86328125 C23.9780363 0.87055177 27.40259947 1.12156499 31 2 C32.56826707 8.19693881 33.3919042 14.45449941 33.9375 20.8125 C34.0192749 21.54138428 34.1010498 22.27026855 34.18530273 23.02124023 C34.48171555 27.09375558 34.25817499 28.68568152 31.62890625 31.88671875 C30.76136719 32.58410156 29.89382812 33.28148437 29 34 C28.34 34.66 27.68 35.32 27 36 C23.7421875 35.9765625 23.7421875 35.9765625 19.875 35.625 C18.59367187 35.51414062 17.31234375 35.40328125 15.9921875 35.2890625 C14.51105469 35.14597656 14.51105469 35.14597656 13 35 C13 34.34 13 33.68 13 33 C11.88625 33.04125 10.7725 33.0825 9.625 33.125 C6 33 6 33 4 31 C4 30.01 4 29.02 4 28 C1.03 27.01 -1.94 26.02 -5 25 C-5 16 -5 16 -3 14 C-1.12095724 9.35765906 -0.51104387 4.94009076 0 0 Z " fill="#E99F76" transform="translate(146,257)"/>
<path d="M0 0 C0.33 0 0.66 0 1 0 C1.18175781 0.99902344 1.36351562 1.99804688 1.55078125 3.02734375 C1.80214844 4.31769531 2.05351562 5.60804688 2.3125 6.9375 C2.55613281 8.22527344 2.79976563 9.51304687 3.05078125 10.83984375 C3.36402344 11.88269531 3.67726563 12.92554688 4 14 C4.99 14.33 5.98 14.66 7 15 C7 16.32 7 17.64 7 19 C6.34 19 5.68 19 5 19 C5 19.99 5 20.98 5 22 C5.66 22 6.32 22 7 22 C7 22.99 7 23.98 7 25 C4.03 25.66 1.06 26.32 -2 27 C-2.33 28.32 -2.66 29.64 -3 31 C-5.72341486 33.72341486 -8.05630406 33.81126081 -11.8125 34.5625 C-13.03582031 34.81128906 -14.25914062 35.06007813 -15.51953125 35.31640625 C-17.24236328 35.65478516 -17.24236328 35.65478516 -19 36 C-20.37671875 36.34417969 -20.37671875 36.34417969 -21.78125 36.6953125 C-24 37 -24 37 -26.6875 35.3125 C-29.4146227 32.5853773 -30.83161925 30.58497902 -31.24291992 26.71337891 C-31.23881104 25.89272949 -31.23470215 25.07208008 -31.23046875 24.2265625 C-31.22853516 23.3190625 -31.22660156 22.4115625 -31.22460938 21.4765625 C-31.20624023 20.06503906 -31.20624023 20.06503906 -31.1875 18.625 C-31.18685547 17.69171875 -31.18621094 16.7584375 -31.18554688 15.796875 C-31.15555703 11.09180086 -30.96693166 6.62580108 -30 2 C-21.91141074 -0.53027664 -11.55268149 -0.33044305 -4 3.5 C-2.64704857 4.30108966 -1.30438586 5.12204798 0 6 C0 4.02 0 2.04 0 0 Z " fill="#EBA178" transform="translate(337,255)"/>
<path d="M0 0 C5.506875 -0.1546875 5.506875 -0.1546875 11.125 -0.3125 C12.2711377 -0.35802002 13.41727539 -0.40354004 14.59814453 -0.45043945 C23.04523652 -0.56522985 23.04523652 -0.56522985 26.6171875 2.26953125 C30.59561106 6.82841333 31.44602015 9.84506422 31.328125 15.80859375 C30.8403466 19.06625662 29.35595915 20.78262668 27 23 C26.34 23.33 25.68 23.66 25 24 C25.33 25.98 25.66 27.96 26 30 C26.66 30 27.32 30 28 30 C31 35.75 31 35.75 31 38 C27.49298162 38.62377797 24.47690404 38.86922601 21 38 C18.01854634 34.78562027 15 30.52663386 15 26 C13.02 26 11.04 26 9 26 C9 29.96 9 33.92 9 38 C6.03 38 3.06 38 0 38 C0 25.46 0 12.92 0 0 Z " fill="#CA592D" transform="translate(376,317)"/>
<path d="M0 0 C4.25462479 1.83343625 7.31640581 4.98567636 9.6875 8.9375 C9.6875 9.9275 9.6875 10.9175 9.6875 11.9375 C3.31928148 12.43696812 0.705744 12.05503354 -4.3125 7.9375 C-8.65632563 7.00986578 -11.50413791 7.4215242 -15.25 9.8125 C-18.81149354 13.48191759 -18.70047165 16.50590417 -18.671875 21.453125 C-18.47641619 24.24615776 -18.47641619 24.24615776 -15.9375 27 C-12.1063628 29.82774412 -10.09732779 30.39757959 -5.3125 29.9375 C-0.62582964 27.46448536 -0.62582964 27.46448536 1.6875 22.9375 C-2.2725 22.9375 -6.2325 22.9375 -10.3125 22.9375 C-10.3125 20.6275 -10.3125 18.3175 -10.3125 15.9375 C-3.0525 15.9375 4.2075 15.9375 11.6875 15.9375 C11.6875 25.19366302 11.20577508 27.44311494 5.6875 33.9375 C0.76490062 38.51666222 -3.08804021 39.24369649 -9.61328125 39.1484375 C-15.33812143 38.70105491 -20.39216352 37.45568833 -24.25 33 C-29.01325697 25.92728511 -29.59896399 19.30383296 -28.3125 10.9375 C-22.15235659 -0.05529829 -11.85035871 -3.66905337 0 0 Z " fill="#CA5B30" transform="translate(295.3125,317.0625)"/>
<path d="M0 0 C0.99 0.33 1.98 0.66 3 1 C3 2.32 3 3.64 3 5 C3.61875 5.0825 4.2375 5.165 4.875 5.25 C7 6 7 6 8.0625 8 C8.5265625 8.99 8.5265625 8.99 9 10 C9.99 10.33 10.98 10.66 12 11 C12 11.66 12 12.32 12 13 C12.67546875 12.98839844 13.3509375 12.97679687 14.046875 12.96484375 C14.93890625 12.95582031 15.8309375 12.94679687 16.75 12.9375 C18.07257813 12.92009766 18.07257813 12.92009766 19.421875 12.90234375 C21.7818838 12.99173802 23.74498524 13.33087179 26 14 C26 13.34 26 12.68 26 12 C26.99 12 27.98 12 29 12 C26.75362129 20.98551483 21.13133595 26.4888552 13.59375 31.4609375 C5.48920645 36.26995882 -1.37592324 38.17989282 -10.8125 38.0625 C-11.50537109 38.05798828 -12.19824219 38.05347656 -12.91210938 38.04882812 C-14.60811068 38.03713156 -16.30406703 38.01919924 -18 38 C-17.8150967 26.90580175 -11.40971171 18.99175551 -5.35546875 10.11328125 C-3.27563473 6.87065819 -1.64535101 3.48055021 0 0 Z " fill="#F3BC97" transform="translate(223,184)"/>
<path d="M0 0 C3.3 0 6.6 0 10 0 C13 7.625 13 7.625 13 11 C13.66 11 14.32 11 15 11 C15.33773437 11.95261719 15.67546875 12.90523438 16.0234375 13.88671875 C16.47390696 15.1536641 16.92443067 16.42059016 17.375 17.6875 C17.81585938 18.92886719 18.25671875 20.17023438 18.7109375 21.44921875 C20.08133426 25.2240389 21.54338106 28.93455581 23.125 32.625 C24 35 24 35 24 38 C21.03 38 18.06 38 15 38 C14.66355469 37.02804687 14.32710937 36.05609375 13.98046875 35.0546875 C12.25975855 31.62091276 12.25975855 31.62091276 8.42578125 31.1953125 C7.05551014 31.14235516 5.68378449 31.11987849 4.3125 31.125 C3.2596582 31.0940625 3.2596582 31.0940625 2.18554688 31.0625 C0.45754532 31.01547955 -1.27136406 31.00425249 -3 31 C-3.66 33.31 -4.32 35.62 -5 38 C-8.3 38 -11.6 38 -15 38 C-12.25 29.375 -12.25 29.375 -10 26 C-10 25.01 -10 24.02 -10 23 C-10 20 -10 20 -8 17 C-7.34 17 -6.68 17 -6 17 C-5.83177734 15.95779297 -5.83177734 15.95779297 -5.66015625 14.89453125 C-4.91553885 11.62967036 -3.75599912 8.76399795 -2.4375 5.6875 C-1.98246094 4.61886719 -1.52742188 3.55023438 -1.05859375 2.44921875 C-0.70925781 1.64097656 -0.35992187 0.83273437 0 0 Z " fill="#CA5C31" transform="translate(107,317)"/>
<path d="M0 0 C2.97 0 5.94 0 9 0 C9.84069415 1.60032137 10.67231505 3.20541171 11.5 4.8125 C11.9640625 5.70582031 12.428125 6.59914063 12.90625 7.51953125 C14 10 14 10 14 13 C14.66 13 15.32 13 16 13 C22.51936219 29.70842825 22.51936219 29.70842825 24 38 C21.03 38 18.06 38 15 38 C13 34 13 34 13 31 C7.72 31 2.44 31 -3 31 C-3.66 33.31 -4.32 35.62 -5 38 C-7.97 38 -10.94 38 -14 38 C-13.29693193 33.71618992 -11.91965969 29.78819598 -10.375 25.75 C-10.1157373 25.06486328 -9.85647461 24.37972656 -9.58935547 23.67382812 C-6.55271387 15.71771913 -3.28612981 7.85560026 0 0 Z " fill="#CA5A30" transform="translate(205,317)"/>
<path d="M0 0 C3.3 0 6.6 0 10 0 C11.35028225 10.95228936 11.77508681 22.47015921 8 33 C6.4140625 34.9609375 6.4140625 34.9609375 4.625 36.375 C4.03976562 36.85710937 3.45453125 37.33921875 2.8515625 37.8359375 C-2.06192429 40.92500726 -8.4106548 40.71284403 -14 40 C-18.77845688 37.77389157 -21.01878404 33.71244592 -23 29 C-23.34057617 25.74853516 -23.34057617 25.74853516 -23.29296875 22.2890625 C-23.28330078 21.04511719 -23.27363281 19.80117188 -23.26367188 18.51953125 C-23.23853516 17.23433594 -23.21339844 15.94914062 -23.1875 14.625 C-23.17396484 13.31660156 -23.16042969 12.00820313 -23.14648438 10.66015625 C-23.1112237 7.43968156 -23.06193633 4.22005394 -23 1 C-20.03 1 -17.06 1 -14 1 C-13.98541748 1.70084717 -13.97083496 2.40169434 -13.95581055 3.1237793 C-13.88114513 6.31223009 -13.78454525 9.49965513 -13.6875 12.6875 C-13.66494141 13.79029297 -13.64238281 14.89308594 -13.61914062 16.02929688 C-13.58369141 17.09599609 -13.54824219 18.16269531 -13.51171875 19.26171875 C-13.48553467 20.24100342 -13.45935059 21.22028809 -13.43237305 22.22924805 C-12.92701489 25.46770639 -11.98911226 27.40511132 -10 30 C-6.84010585 30.38692581 -4.86120256 30.43060128 -2 29 C-0.94163339 25.82490018 -0.79756211 23.35717617 -0.68359375 20.01953125 C-0.64169922 18.85615234 -0.59980469 17.69277344 -0.55664062 16.49414062 C-0.51732422 15.27919922 -0.47800781 14.06425781 -0.4375 12.8125 C-0.39431641 11.58595703 -0.35113281 10.35941406 -0.30664062 9.09570312 C-0.2004691 6.06391619 -0.09842048 3.03204685 0 0 Z " fill="#CA6038" transform="translate(347,316)"/>
<path d="M0 0 C2.97 0 5.94 0 9 0 C9.01458252 0.73637695 9.02916504 1.47275391 9.04418945 2.23144531 C9.11871111 5.57149004 9.21535873 8.91053981 9.3125 12.25 C9.33505859 13.40886719 9.35761719 14.56773437 9.38085938 15.76171875 C9.41630859 16.87675781 9.45175781 17.99179687 9.48828125 19.140625 C9.51446533 20.16704102 9.54064941 21.19345703 9.56762695 22.25097656 C10.05688435 25.36167014 10.79103319 26.77832862 13 29 C16 29.66666667 16 29.66666667 19 29 C22.08184847 25.9004267 22.40256473 23.41946263 22.51171875 19.140625 C22.54716797 18.02558594 22.58261719 16.91054688 22.61914062 15.76171875 C22.64169922 14.60285156 22.66425781 13.44398438 22.6875 12.25 C22.72166016 11.07566406 22.75582031 9.90132813 22.79101562 8.69140625 C22.87345173 5.79436611 22.94261811 2.89762702 23 0 C25.97 0 28.94 0 32 0 C32.12422509 4.16249607 32.21462647 8.3239917 32.2746582 12.48779297 C32.29969925 13.90204682 32.33374342 15.31617257 32.37719727 16.72998047 C32.77471773 30.00248719 32.77471773 30.00248719 29.6796875 33.84375 C24.17783273 38.27089845 19.22745259 39.52667638 12.296875 39.28515625 C7.78317268 38.72478164 5.67273965 36.76617571 2.75 33.4375 C-0.08399387 29.4901514 -0.1187853 27.32061868 -0.09765625 22.4609375 C-0.09443359 21.15898437 -0.09121094 19.85703125 -0.08789062 18.515625 C-0.07953466 17.13541601 -0.07106971 15.75520768 -0.0625 14.375 C-0.05748501 12.98698074 -0.0529221 11.59895978 -0.04882812 10.2109375 C-0.03700976 6.80724868 -0.02053434 3.40364561 0 0 Z " fill="#CA5C32" transform="translate(425,317)"/>
<path d="M0 0 C0 0.66 0 1.32 0 2 C-1.70652065 2.79556657 -3.4153117 3.5862638 -5.125 4.375 C-6.07632813 4.81585938 -7.02765625 5.25671875 -8.0078125 5.7109375 C-10.96482762 6.98484741 -13.93261118 8.02608129 -17 9 C-16.87431641 10.42892578 -16.87431641 10.42892578 -16.74609375 11.88671875 C-16.64425781 13.14097656 -16.54242188 14.39523438 -16.4375 15.6875 C-16.33308594 16.92886719 -16.22867188 18.17023438 -16.12109375 19.44921875 C-16.01506159 22.55835533 -16.22771475 25.00810972 -17 28 C-17.66 28 -18.32 28 -19 28 C-18.979375 28.7425 -18.95875 29.485 -18.9375 30.25 C-20.2316547 33.59957688 -21.08564778 33.87416296 -24.25 35.375 C-27.88444018 36.81146922 -30.23126423 37.44098721 -34 36 C-34.99 35.67 -35.98 35.34 -37 35 C-37 34.01 -37 33.02 -37 32 C-38.32 31.67 -39.64 31.34 -41 31 C-41 30.01 -41 29.02 -41 28 C-41.99 28 -42.98 28 -44 28 C-45.9126443 23.25489009 -46.10351618 19.6972715 -45.625 14.625 C-45.51414063 13.37976563 -45.40328125 12.13453125 -45.2890625 10.8515625 C-45.19367188 9.91054687 -45.09828125 8.96953125 -45 8 C-44.36610352 8.02094727 -43.73220703 8.04189453 -43.07910156 8.06347656 C-27.38156428 8.51393259 -13.48193536 0 0 0 Z " fill="#F3BC97" transform="translate(272,155)"/>
<path d="M0 0 C0.391875 0.886875 0.78375 1.77375 1.1875 2.6875 C3.06636955 6.12129608 5.13295455 8.36541769 8 11 C8.99 10.5978125 8.99 10.5978125 10 10.1875 C12.39251162 9.24046415 14.7856929 8.29809891 17.1875 7.375 C18.19876953 6.98441406 18.19876953 6.98441406 19.23046875 6.5859375 C21 6 21 6 23 6 C22.97643433 7.14214966 22.97643433 7.14214966 22.95239258 8.30737305 C22.88991547 11.7673394 22.85096828 15.2271869 22.8125 18.6875 C22.78736328 19.88568359 22.76222656 21.08386719 22.73632812 22.31835938 C22.72182617 24.05375977 22.72182617 24.05375977 22.70703125 25.82421875 C22.68346558 27.41882935 22.68346558 27.41882935 22.65942383 29.0456543 C23.20310973 33.76188589 25.54076939 36.87021992 29 40 C28 41 28 41 25.05859375 41.09765625 C23.86363281 41.08605469 22.66867187 41.07445312 21.4375 41.0625 C19.64119141 41.04896484 19.64119141 41.04896484 17.80859375 41.03515625 C16.88175781 41.02355469 15.95492188 41.01195312 15 41 C15.55880859 40.31164062 15.55880859 40.31164062 16.12890625 39.609375 C16.60199219 38.99578125 17.07507813 38.3821875 17.5625 37.75 C18.03816406 37.14671875 18.51382812 36.5434375 19.00390625 35.921875 C20.22889098 34.02188446 20.22889098 34.02188446 19.65234375 31.765625 C19.43707031 31.18296875 19.22179687 30.6003125 19 30 C17.98679687 29.98582031 16.97359375 29.97164063 15.9296875 29.95703125 C3.74492651 29.60781069 3.74492651 29.60781069 0.4375 27.125 C-2.37328196 23.52143338 -4.46062179 19.79858311 -6.54296875 15.73828125 C-8.41023076 12.22903012 -10.60675185 9.16753432 -13 6 C-10.83049884 3.57206296 -8.99994161 2.3943719 -5.9375 1.3125 C-5.24527344 1.06113281 -4.55304688 0.80976563 -3.83984375 0.55078125 C-2 0 -2 0 0 0 Z " fill="#C74E22" transform="translate(284,252)"/>
<path d="M0 0 C7.20812847 0.3052302 14.11438496 2.54280827 20.86328125 4.93359375 C24.2330006 6.0792144 27.6262099 7.01191259 31.0625 7.9375 C37.36599006 9.69742882 43.14853859 12.08621105 49 15 C48.67 15.99 48.34 16.98 48 18 C42.03446808 20.52673912 35.05064743 20.3182641 28.6875 20.25 C27.76759277 20.24250732 26.84768555 20.23501465 25.89990234 20.22729492 C6.79168321 19.92594063 6.79168321 19.92594063 -1 13 C-2.17673198 10.64653604 -2.16623866 9.1193967 -2.1875 6.5 C-2.20167969 5.7059375 -2.21585938 4.911875 -2.23046875 4.09375 C-2 2 -2 2 0 0 Z " fill="#F4BD98" transform="translate(223,269)"/>
<path d="M0 0 C11.22 0 22.44 0 34 0 C34 2.97 34 5.94 34 9 C29.71 9 25.42 9 21 9 C21 18.9 21 28.8 21 39 C18.03 39 15.06 39 12 39 C12 29.1 12 19.2 12 9 C8.04 9 4.08 9 0 9 C0 6.03 0 3.06 0 0 Z " fill="#CB6037" transform="translate(144,316)"/>
<path d="M0 0 C25 18 25 18 29 30 C29.06740865 31.56118428 29.08514456 33.1250252 29.0625 34.6875 C29.05347656 35.49574219 29.04445313 36.30398438 29.03515625 37.13671875 C29.02355469 37.75160156 29.01195312 38.36648438 29 39 C27.51965236 38.52449439 26.04074979 38.04448784 24.5625 37.5625 C23.73878906 37.29566406 22.91507812 37.02882813 22.06640625 36.75390625 C20 36 20 36 19 35 C16.65012738 34.76472227 14.29443961 34.58613583 11.9375 34.4375 C10.64714844 34.35371094 9.35679687 34.26992188 8.02734375 34.18359375 C6.52880859 34.09271484 6.52880859 34.09271484 5 34 C5 33.67 5 33.34 5 33 C8.96 33 12.92 33 17 33 C11.3593507 22.87575766 5.22068084 13.24499209 -6 9 C-6.825 8.608125 -7.65 8.21625 -8.5 7.8125 C-11.97904509 6.68181035 -15.36156959 6.37000987 -19 6 C-13.06147771 2.04098514 -6.91895619 1.75289442 0 2 C0 1.34 0 0.68 0 0 Z " fill="#F6AC1E" transform="translate(308,222)"/>
<path d="M0 0 C2.60293503 0.23176819 5.16272293 0.52425997 7.75 0.875 C8.82507813 1.01228516 8.82507813 1.01228516 9.921875 1.15234375 C13.64648442 1.63846005 17.3285272 2.20499605 21 3 C20.67 3.66 20.34 4.32 20 5 C17.84765625 5.421875 17.84765625 5.421875 15.0625 5.75 C6.12390845 7.25715551 -0.62903883 11.66465857 -6.33984375 18.64453125 C-8.98109069 22.39199455 -11.21999294 26.34536095 -13.421875 30.36328125 C-15.82732392 34.38228626 -17.7629756 36.16430307 -22.1875 37.6875 C-22.90292969 37.93886719 -23.61835938 38.19023437 -24.35546875 38.44921875 C-24.89816406 38.63097656 -25.44085938 38.81273437 -26 39 C-26.64298504 30.28398054 -25.35946094 25.18841883 -19.89453125 18.375 C-14.14039382 11.788388 -7.87765663 6.36731824 -1 1 C-0.67 0.67 -0.34 0.34 0 0 Z " fill="#F6AC1E" transform="translate(173,225)"/>
<path d="M0 0 C0.53625 0.2475 1.0725 0.495 1.625 0.75 C0.573125 1.678125 0.573125 1.678125 -0.5 2.625 C-8.81793118 10.96649472 -12.7590511 22.74479697 -16.3125 33.6875 C-19.42601589 43.21972349 -22.67186328 52.86768932 -30.375 59.75 C-31.86 60.245 -31.86 60.245 -33.375 60.75 C-31.64829093 53.33778548 -29.60679859 46.07639255 -27.2824707 38.83398438 C-25.84491319 34.33604574 -24.58263786 29.81653346 -23.375 25.25 C-20.60069068 15.55092653 -16.2928772 9.91007735 -8.375 3.75 C-7.81167969 3.30140625 -7.24835938 2.8528125 -6.66796875 2.390625 C-4.30950141 0.64715041 -2.98080485 -0.31376893 0 0 Z " fill="#F6AE22" transform="translate(210.375,158.25)"/>
<path d="M0 0 C18.47006767 10.98852127 22.54953061 23.82861979 28.60546875 43.57421875 C30.02044667 48.14876143 31.66363247 52.61720946 33.43359375 57.06640625 C34 59 34 59 33 61 C22.76237429 54.07454731 17.95729855 41.0242694 14.1875 29.75 C11.17781891 20.79647201 7.15680516 12.25905912 1.26171875 4.80078125 C0 3 0 3 0 0 Z " fill="#F5AE22" transform="translate(272,157)"/>
<path d="M0 0 C3.85880936 6.75291638 3.28506966 13.38758424 3 21 C-6.15244471 21.30659554 -14.34796755 21.49409003 -23 18 C-17.92018791 8.96740809 -11.72985083 -1.74699906 0 0 Z " fill="#D66C39" transform="translate(203,268)"/>
<path d="M0 0 C0.66 0 1.32 0 2 0 C2 0.99 2 1.98 2 3 C2.59296875 3.26425781 3.1859375 3.52851562 3.796875 3.80078125 C7.41015084 5.76758211 9.83011584 8.52818535 12 12 C12.68167231 16.02186663 12.73007923 17.91948274 10.4375 21.3125 C4.43463038 25.46833282 -1.99283864 25.25378049 -9 25 C-10.22523698 13.19007685 -10.22523698 13.19007685 -7.25390625 7.87890625 C-5.27224628 5.44510283 -3.25137898 3.18474197 -1 1 C-0.67 0.67 -0.34 0.34 0 0 Z " fill="#F8D7B7" transform="translate(212,87)"/>
<path d="M0 0 C1.67083819 1.32810215 3.33729713 2.66172696 5 4 C7.98916126 4.63329688 10.95075968 4.8671355 14 5 C14.33 4.34 14.66 3.68 15 3 C14.67 4.98 14.34 6.96 14 9 C7.4 9 0.8 9 -6 9 C-6 11.31 -6 13.62 -6 16 C-2.04 16 1.92 16 6 16 C5 20 5 20 2.3125 22.25 C-1.32740406 24.17296818 -2.96555589 24.67240735 -7 24 C-10.6578218 21.96006092 -12.66946174 20.49580738 -15 17 C-15.66624845 12.92536476 -15.94496094 8.75643297 -13.94921875 5.046875 C-9.92089648 0.1510969 -6.20904398 -0.91806876 0 0 Z " fill="#B4B0AF" transform="translate(291,324)"/>
<path d="M0 0 C11.5862069 0 11.5862069 0 15 3 C17.12738138 5.71424521 17.92909561 7.5239277 18.4375 10.9375 C17.87672496 14.86292527 16.49711051 16.94797605 14 20 C10 22 10 22 0 22 C0 14.74 0 7.48 0 0 Z " fill="#B9B7B7" transform="translate(52,325)"/>
<path d="M0 0 C0.33 0 0.66 0 1 0 C1.18175781 0.99902344 1.36351562 1.99804688 1.55078125 3.02734375 C1.80214844 4.31769531 2.05351562 5.60804688 2.3125 6.9375 C2.67794922 8.86916016 2.67794922 8.86916016 3.05078125 10.83984375 C3.36402344 11.88269531 3.67726563 12.92554688 4 14 C4.99 14.33 5.98 14.66 7 15 C7 16.32 7 17.64 7 19 C6.34 19 5.68 19 5 19 C5 19.99 5 20.98 5 22 C5.66 22 6.32 22 7 22 C7 22.99 7 23.98 7 25 C4.03 25.66 1.06 26.32 -2 27 C-2.33 28.32 -2.66 29.64 -3 31 C-6.71626694 34.71626694 -12.99197999 34.3126247 -18 35 C-18 29.72 -18 24.44 -18 19 C-16.68 19 -15.36 19 -14 19 C-14 23.62 -14 28.24 -14 33 C-13.34 33 -12.68 33 -12 33 C-12 28.38 -12 23.76 -12 19 C-11.34 19 -10.68 19 -10 19 C-9.34 19.99 -8.68 20.98 -8 22 C-7.01 21.34 -6.02 20.68 -5 20 C-3.0103005 19.60986284 -1.00980131 19.26797351 1 19 C0.67 18.01 0.34 17.02 0 16 C0.33 15.67 0.66 15.34 1 15 C0.071875 14.5875 -0.85625 14.175 -1.8125 13.75 C-4.91979492 12.04403416 -6.32697248 11.06721712 -8 8 C-8 6.68 -8 5.36 -8 4 C-2.25 4.875 -2.25 4.875 0 6 C0 4.02 0 2.04 0 0 Z " fill="#F2BF9C" transform="translate(337,255)"/>
<path d="M0 0 C3.13886623 1.44607156 6.18608352 2.96450737 9.203125 4.6484375 C9.533125 3.6584375 9.863125 2.6684375 10.203125 1.6484375 C10.698125 3.1334375 10.698125 3.1334375 11.203125 4.6484375 C3.33932495 10.18884208 -2.72797083 9.88653699 -12.171875 9.9609375 C-13.39132813 9.98994141 -14.61078125 10.01894531 -15.8671875 10.04882812 C-27.14319368 10.12884345 -27.14319368 10.12884345 -31.796875 5.6484375 C-32.671875 3.3984375 -32.671875 3.3984375 -32.796875 1.6484375 C-31.311875 2.6384375 -31.311875 2.6384375 -29.796875 3.6484375 C-26.3577982 3.45737768 -24.70436999 2.58348717 -21.859375 0.5859375 C-15.38910396 -3.21762747 -6.812387 -2.687617 0 0 Z " fill="#3D3736" transform="translate(250.796875,139.3515625)"/>
<path d="M0 0 C10.8797802 2.7641718 20.13927419 8.25183873 29.78686523 13.82666016 C35.65350928 16.93698462 40.55890831 17.32766269 47.13671875 17.55859375 C48.08160156 17.70425781 49.02648437 17.84992188 50 18 C50.66 18.99 51.32 19.98 52 21 C48.97846145 20.88529624 45.95821599 20.7585615 42.9375 20.625 C42.08994141 20.5940625 41.24238281 20.563125 40.36914062 20.53125 C35.26321829 20.29468217 30.85208127 19.61955494 26 18 C28.64 18.99 31.28 19.98 34 21 C34 21.33 34 21.66 34 22 C23.40146004 22.50469238 16.2174427 19.2324417 6.88671875 14.4296875 C3.3271841 12.66677859 -0.24942121 11.29827727 -4 10 C-4 9.67 -4 9.34 -4 9 C-2.60386935 9.14295891 -1.20810692 9.28951558 0.1875 9.4375 C0.96480469 9.51871094 1.74210938 9.59992188 2.54296875 9.68359375 C5.04640786 10.00597621 7.52490524 10.50498105 10 11 C5.71 10.01 1.42 9.02 -3 8 C-3 7.67 -3 7.34 -3 7 C4.59762024 6.61000809 10.84466021 7.39241413 18 10 C16.12762629 9.03654556 14.2519701 8.07946898 12.375 7.125 C11.33085937 6.59132812 10.28671875 6.05765625 9.2109375 5.5078125 C6.18198375 4.08545709 3.19356666 2.9877999 0 2 C0 1.34 0 0.68 0 0 Z " fill="#D66636" transform="translate(209,240)"/>
<path d="M0 0 C0.66 0.33 1.32 0.66 2 1 C-1.82671676 9.53276419 -5.19689976 14.22873102 -14 18 C-17.6484375 18.29296875 -17.6484375 18.29296875 -21.375 18.1875 C-22.62023437 18.16042969 -23.86546875 18.13335937 -25.1484375 18.10546875 C-26.08945313 18.07066406 -27.03046875 18.03585937 -28 18 C-28 17.67 -28 17.34 -28 17 C-27.39414063 16.91363281 -26.78828125 16.82726562 -26.1640625 16.73828125 C-19.40972336 15.60563053 -13.9655435 13.32547318 -8 10 C-8.85980469 10.28875 -9.71960938 10.5775 -10.60546875 10.875 C-21.71695631 14.36475836 -32.05918369 16.14861944 -43 11 C-43 10.67 -43 10.34 -43 10 C-42.37134033 9.93530518 -41.74268066 9.87061035 -41.0949707 9.80395508 C-24.78901414 8.12384299 -24.78901414 8.12384299 -9.328125 2.98828125 C-7 2 -7 2 -4 2 C-5.98 3.65 -7.96 5.3 -10 7 C-8.51990357 6.02223933 -7.04094856 5.0427506 -5.5625 4.0625 C-4.73878906 3.51722656 -3.91507812 2.97195312 -3.06640625 2.41015625 C-1.10014075 1.16197019 -1.10014075 1.16197019 0 0 Z " fill="#D66836" transform="translate(277,238)"/>
<path d="M0 0 C0.99 0.33 1.98 0.66 3 1 C3 2.65 3 4.3 3 6 C3.99 6 4.98 6 6 6 C6.33 6.99 6.66 7.98 7 9 C7.99 9.33 8.98 9.66 10 10 C10 10.99 10 11.98 10 13 C16.08839075 14.20773419 16.08839075 14.20773419 21.875 12.5625 C22.57625 12.046875 23.2775 11.53125 24 11 C24.99 11 25.98 11 27 11 C27.33 9.35 27.66 7.7 28 6 C28.66 6 29.32 6 30 6 C30 4.35 30 2.7 30 1 C30.66 1 31.32 1 32 1 C33.42857143 9.42857143 33.42857143 9.42857143 31 14 C30.01 14 29.02 14 28 14 C27.67 15.32 27.34 16.64 27 18 C25.68 18 24.36 18 23 18 C22.67 18.99 22.34 19.98 22 21 C20.37509046 21.02698189 18.75005367 21.04638757 17.125 21.0625 C15.76761719 21.07990234 15.76761719 21.07990234 14.3828125 21.09765625 C12 21 12 21 10 20 C10 19.34 10 18.68 10 18 C8.68 17.67 7.36 17.34 6 17 C5.67 15.68 5.34 14.36 5 13 C4.38125 12.938125 3.7625 12.87625 3.125 12.8125 C1 12 1 12 -0.3125 9.875 C-1.16394493 6.31441209 -0.69916653 3.56574931 0 0 Z " fill="#6C3B26" transform="translate(225,177)"/>
<path d="M0 0 C1.47691737 2.95383473 1.18324733 5.9632529 1.203125 9.203125 C1.20882507 9.91853455 1.21452515 10.63394409 1.22039795 11.37103271 C1.2298507 12.88747682 1.23638303 14.40394148 1.24023438 15.92041016 C1.24990467 18.22725973 1.28090897 20.5332047 1.3125 22.83984375 C1.31903389 24.31509889 1.32428284 25.79036039 1.328125 27.265625 C1.3404718 27.9502179 1.3528186 28.63481079 1.36553955 29.34014893 C1.34436546 33.95283253 0.32825972 37.03965326 -2 41 C-4.875 41.1875 -4.875 41.1875 -8 41 C-10.32579101 37.51131349 -10.41865457 36.10281481 -10 32 C-9.51789063 31.44441406 -9.03578125 30.88882813 -8.5390625 30.31640625 C-6.3568735 27.03204566 -6.34650319 23.7029782 -6.0625 19.875 C-4.63362069 4.63362069 -4.63362069 4.63362069 0 0 Z " fill="#EEA882" transform="translate(203,99)"/>
<path d="M0 0 C1.32 0 2.64 0 4 0 C4.33 3.63 4.66 7.26 5 11 C5.33 7.37 5.66 3.74 6 0 C7.65 0.33 9.3 0.66 11 1 C11.33 5.29 11.66 9.58 12 14 C12 9.71 12 5.42 12 1 C12.99 0.67 13.98 0.34 15 0 C15.12117188 0.63808594 15.24234375 1.27617187 15.3671875 1.93359375 C15.53476563 2.75988281 15.70234375 3.58617187 15.875 4.4375 C16.11863281 5.67306641 16.11863281 5.67306641 16.3671875 6.93359375 C16.57601562 7.61550781 16.78484375 8.29742187 17 9 C17.66 9.33 18.32 9.66 19 10 C16.66666667 12.33333333 14.33333333 14.66666667 12 17 C8.7421875 16.9765625 8.7421875 16.9765625 4.875 16.625 C3.59367188 16.51414062 2.31234375 16.40328125 0.9921875 16.2890625 C0.00476563 16.19367188 -0.98265625 16.09828125 -2 16 C-1.34 15.67 -0.68 15.34 0 15 C0 10.05 0 5.1 0 0 Z " fill="#F1BA96" transform="translate(161,276)"/>
<path d="M0 0 C-0.48680352 6.45014663 -0.48680352 6.45014663 -2.75 8.875 C-7.13981803 11.06990902 -11.59281604 11.15896829 -16.4375 11.1875 C-17.52933594 11.20167969 -18.62117187 11.21585937 -19.74609375 11.23046875 C-23.13335377 10.99055478 -25.83858571 10.20639188 -29 9 C-28.67 8.01 -28.34 7.02 -28 6 C-25.84765625 5.15625 -25.84765625 5.15625 -23.0625 4.5 C-19.23418471 3.56154139 -15.49612394 2.53819032 -11.75 1.3125 C-7.65137056 0.05541238 -4.26775652 -0.27833195 0 0 Z " fill="#F3BA95" transform="translate(270,259)"/>
<path d="M0 0 C0.33 0 0.66 0 1 0 C1.33 1.98 1.66 3.96 2 6 C5.465 5.505 5.465 5.505 9 5 C8.9375 7.6875 8.9375 7.6875 8 11 C6.32485982 12.47732212 4.61451923 13.5943749 2.69140625 14.7265625 C0.56234744 16.13270077 0.56234744 16.13270077 -1 20 C2.3 20.66 5.6 21.32 9 22 C9 23.32 9 24.64 9 26 C4.74684436 27.6491828 2.3351775 28.49974625 -1.9375 26.625 C-2.948125 26.08875 -3.95875 25.5525 -5 25 C-5 16 -5 16 -3 14 C-1.12095724 9.35765906 -0.51104387 4.94009076 0 0 Z " fill="#F3BD99" transform="translate(146,257)"/>
<path d="M0 0 C1.09054687 0.02320313 2.18109375 0.04640625 3.3046875 0.0703125 C4.40039062 0.08835937 5.49609375 0.10640625 6.625 0.125 C7.46804688 0.14820313 8.31109375 0.17140625 9.1796875 0.1953125 C9.83203125 1.9921875 9.83203125 1.9921875 10.1796875 4.1953125 C8.81479373 6.52901322 7.0377837 8.20125804 5.1796875 10.1953125 C8.1496875 10.6903125 8.1496875 10.6903125 11.1796875 11.1953125 C11.1796875 11.5253125 11.1796875 11.8553125 11.1796875 12.1953125 C8.5396875 12.1953125 5.8996875 12.1953125 3.1796875 12.1953125 C2.8496875 13.5153125 2.5196875 14.8353125 2.1796875 16.1953125 C0.1796875 16.1953125 0.1796875 16.1953125 -1.36328125 14.91015625 C-5.8203125 10.09317473 -5.8203125 10.09317473 -5.8203125 5.3828125 C-4.60294803 1.50246325 -4.14852238 0.28729379 0 0 Z " fill="#F2BB98" transform="translate(294.8203125,281.8046875)"/>
<path d="M0 0 C10.94366902 -0.88599419 17.41507862 0.65027644 27 6 C27.33 5.01 27.66 4.02 28 3 C28.33 3.99 28.66 4.98 29 6 C24.40749278 9.8673745 21.13097925 10.4426227 15.171875 10.43359375 C14.45515625 10.29050781 13.7384375 10.14742187 13 10 C12.34 9.01 11.68 8.02 11 7 C9.14504039 6.28098683 9.14504039 6.28098683 7.0625 5.9375 C3.97789718 5.33211066 2.74378574 4.8291905 0 3 C0 2.01 0 1.02 0 0 Z " fill="#2C2523" transform="translate(233,138)"/>
<path d="M0 0 C1.32 0 2.64 0 4 0 C4 4.62 4 9.24 4 14 C4.66 14 5.32 14 6 14 C6 9.38 6 4.76 6 0 C8 0 8 0 9.625 1.3125 C11 3 11 3 11 6 C13.97 6.495 13.97 6.495 17 7 C15.92598892 9.91517292 15.22189824 11.77810176 13 14 C8.69406682 14.89660819 4.36060258 15.40148592 0 16 C0 10.72 0 5.44 0 0 Z " fill="#F1B490" transform="translate(319,274)"/>
<path d="M0 0 C8.17817372 -0.36080178 8.17817372 -0.36080178 11.5625 1.125 C13 3 13 3 13.5 6 C13 9 13 9 11.5625 10.875 C7.65825344 12.58905947 4.24192127 12.18714359 0 12 C0 8.04 0 4.08 0 0 Z " fill="#A7A09E" transform="translate(385,324)"/>
<path d="M0 0 C2.87231652 1.28759017 5.19225634 2.37877169 7 5 C7.42690391 8.8421352 7.29626493 11.31859066 5.75 14.875 C3.84080893 17.19330344 2.93752254 17.69611836 0 18 C-2.03435531 14.27034861 -3 12.33094958 -3 8 C-4.32 7.67 -5.64 7.34 -7 7 C-5.68 7 -4.36 7 -3 7 C-2.814375 5.824375 -2.814375 5.824375 -2.625 4.625 C-2 2 -2 2 0 0 Z " fill="#F9D7B6" transform="translate(204,133)"/>
<path d="M0 0 C4.95 0 9.9 0 15 0 C18 6 18 6 18 8 C17.38125 7.835 16.7625 7.67 16.125 7.5 C9.74908377 6.4798534 3.31959197 6.66955959 -3 8 C-2.01 5.36 -1.02 2.72 0 0 Z " fill="#BCBABA" transform="translate(104,348)"/>
<path d="M0 0 C5.28 0 10.56 0 16 0 C18 5 18 5 18 8 C17.38125 7.835 16.7625 7.67 16.125 7.5 C10.15889001 6.5454224 3.87070123 6.43447967 -2 8 C-1.125 2.25 -1.125 2.25 0 0 Z " fill="#BEBCBB" transform="translate(202,348)"/>
<path d="M0 0 C1.37365621 2.74731243 1.0128639 4.81667064 0.87890625 7.8828125 C0.83056641 9.04941406 0.78222656 10.21601562 0.73242188 11.41796875 C0.67634766 12.64128906 0.62027344 13.86460938 0.5625 15.125 C0.51029297 16.35605469 0.45808594 17.58710937 0.40429688 18.85546875 C0.2743256 21.90388588 0.13934981 24.9519995 0 28 C-1.65 28 -3.3 28 -5 28 C-5.78118076 9.2950606 -5.78118076 9.2950606 -1 1 C-0.67 0.67 -0.34 0.34 0 0 Z " fill="#504B48" transform="translate(203,99)"/>
<path d="M0 0 C1.98 0 3.96 0 6 0 C7.98 3.96 9.96 7.92 12 12 C10.7625 12.020625 9.525 12.04125 8.25 12.0625 C7.55390625 12.07410156 6.8578125 12.08570313 6.140625 12.09765625 C4 12 4 12 0 11 C0 7.37 0 3.74 0 0 Z " fill="#A8A5A3" transform="translate(385,343)"/>
<path d="M0 0 C2 1 2 1 2.8515625 2.828125 C5.13089056 9.96541489 5.31544336 16.54619024 5 24 C3.35 24.33 1.7 24.66 0 25 C0 16.75 0 8.5 0 0 Z " fill="#211D1D" transform="translate(277,101)"/>
<path d="M0 0 C2 2 2 2 2 5 C3.32 5.33 4.64 5.66 6 6 C6 6.99 6 7.98 6 9 C-4.15317287 8.64989059 -4.15317287 8.64989059 -7.6875 5.9375 C-8.120625 5.298125 -8.55375 4.65875 -9 4 C-6.77704343 -0.92226099 -5.22239102 -1.43615753 0 0 Z " fill="#F4BB96" transform="translate(279,272)"/>
<path d="M0 0 C2.92586433 1.46293216 3.05946588 3.40270098 4.125 6.4375 C4.47820312 7.42621094 4.83140625 8.41492188 5.1953125 9.43359375 C6 12 6 12 6 14 C2.7 14 -0.6 14 -4 14 C-3.36843005 8.94744036 -1.86540627 4.70406799 0 0 Z " fill="#A0928D" transform="translate(111,328)"/>
<path d="M0 0 C0.66 0 1.32 0 2 0 C2.67305018 1.60149886 3.33822227 3.20631029 4 4.8125 C4.37125 5.70582031 4.7425 6.59914063 5.125 7.51953125 C6 10 6 10 6 13 C2.7 13 -0.6 13 -4 13 C-3.40895235 8.15340923 -2.02055843 4.39251833 0 0 Z " fill="#9F928D" transform="translate(209,329)"/>
<path d="M0 0 C1.32 0 2.64 0 4 0 C4.02685095 2.47923801 4.04676547 4.9581884 4.0625 7.4375 C4.07087891 8.14455078 4.07925781 8.85160156 4.08789062 9.58007812 C4.09653588 11.38693559 4.05220011 13.19387603 4 15 C3 16 3 16 -0.0625 16.0625 C-1.031875 16.041875 -2.00125 16.02125 -3 16 C-2.34 15.67 -1.68 15.34 -1 15 C-1.01160156 14.08476562 -1.02320313 13.16953125 -1.03515625 12.2265625 C-1.04417969 11.03804688 -1.05320312 9.84953125 -1.0625 8.625 C-1.07410156 7.44164062 -1.08570313 6.25828125 -1.09765625 5.0390625 C-1 2 -1 2 0 0 Z " fill="#F4B995" transform="translate(314,274)"/>
<path d="M0 0 C1.85625 0.0309375 1.85625 0.0309375 3.75 0.0625 C3.09 0.7225 2.43 1.3825 1.75 2.0625 C1.4436141 4.79684962 1.2386664 7.44529821 1.125 10.1875 C1.06699219 11.31865234 1.06699219 11.31865234 1.0078125 12.47265625 C0.91348969 14.33553184 0.83065338 16.19898255 0.75 18.0625 C-1.23 18.7225 -3.21 19.3825 -5.25 20.0625 C-5.58 19.4025 -5.91 18.7425 -6.25 18.0625 C-4.6 17.7325 -2.95 17.4025 -1.25 17.0625 C-0.92 12.1125 -0.59 7.1625 -0.25 2.0625 C-1.57 2.0625 -2.89 2.0625 -4.25 2.0625 C-4.58 7.0125 -4.91 11.9625 -5.25 17.0625 C-6.24 17.3925 -7.23 17.7225 -8.25 18.0625 C-8.58 17.4025 -8.91 16.7425 -9.25 16.0625 C-8.59 16.0625 -7.93 16.0625 -7.25 16.0625 C-7.58 11.1125 -7.91 6.1625 -8.25 1.0625 C-5.12110801 0.280277 -3.1099909 -0.05183318 0 0 Z " fill="#D8916B" transform="translate(318.25,271.9375)"/>
<path d="M0 0 C1.32 0 2.64 0 4 0 C4 4.62 4 9.24 4 14 C4.99 14.33 5.98 14.66 7 15 C4.69 15.33 2.38 15.66 0 16 C0 10.72 0 5.44 0 0 Z " fill="#F1B691" transform="translate(319,274)"/>
<path d="M0 0 C1.32 0 2.64 0 4 0 C4.33 4.95 4.66 9.9 5 15 C3.35 15 1.7 15 0 15 C0 10.05 0 5.1 0 0 Z " fill="#F2B58F" transform="translate(161,276)"/>
<path d="M0 0 C0.8971875 1.1446875 0.8971875 1.1446875 1.8125 2.3125 C3.46959332 4.3483575 5.10297674 6.1978279 7 8 C6 9 6 9 3.05859375 9.09765625 C1.26615234 9.08025391 1.26615234 9.08025391 -0.5625 9.0625 C-2.35880859 9.04896484 -2.35880859 9.04896484 -4.19140625 9.03515625 C-5.11824219 9.02355469 -6.04507812 9.01195312 -7 9 C-6.21654285 7.82780457 -5.42297164 6.66236332 -4.625 5.5 C-4.18414062 4.8503125 -3.74328125 4.200625 -3.2890625 3.53125 C-2.65097656 2.77328125 -2.65097656 2.77328125 -2 2 C-1.34 2 -0.68 2 0 2 C0 1.34 0 0.68 0 0 Z " fill="#C65730" transform="translate(306,284)"/>
<path d="M0 0 C0.33 0 0.66 0 1 0 C1 4.29 1 8.58 1 13 C-2.3125 13.3125 -2.3125 13.3125 -6 13 C-7.9375 10.5 -7.9375 10.5 -9 8 C-5.25 6 -5.25 6 -3 6 C-2.67 6.66 -2.34 7.32 -2 8 C-1.855625 6.865625 -1.71125 5.73125 -1.5625 4.5625 C-1 1 -1 1 0 0 Z " fill="#F0AD87" transform="translate(158,277)"/>
<path d="M0 0 C0.33 0 0.66 0 1 0 C1 3.96 1 7.92 1 12 C2.65 12 4.3 12 6 12 C6.33 11.34 6.66 10.68 7 10 C7.08096803 11.45742463 7.13917774 12.91612807 7.1875 14.375 C7.22230469 15.18710938 7.25710937 15.99921875 7.29296875 16.8359375 C7.19628906 17.55007812 7.09960938 18.26421875 7 19 C6.01 19.66 5.02 20.32 4 21 C1.68683344 19.30610638 0.16813253 17.97994403 -0.33007812 15.07617188 C-0.3934207 12.78970912 -0.34853117 10.53516518 -0.25 8.25 C-0.23195312 7.45722656 -0.21390625 6.66445312 -0.1953125 5.84765625 C-0.14833082 3.89791652 -0.07659044 1.94880122 0 0 Z " fill="#D49B7D" transform="translate(197,115)"/>
<path d="M0 0 C1.39214652 4.17643955 -0.29335734 6.83437793 -1.9375 10.6875 C-2.22818359 11.38939453 -2.51886719 12.09128906 -2.81835938 12.81445312 C-3.53710313 14.54650775 -4.26745331 16.27373781 -5 18 C-5.99 17.67 -6.98 17.34 -8 17 C-7.67 15.906875 -7.34 14.81375 -7 13.6875 C-5.86913351 10.15421116 -5.86913351 10.15421116 -6 7 C-4.6875 5.17578125 -4.6875 5.17578125 -3 3.3125 C-2.443125 2.68988281 -1.88625 2.06726563 -1.3125 1.42578125 C-0.879375 0.95527344 -0.44625 0.48476563 0 0 Z " fill="#D0CFCE" transform="translate(203,319)"/>
<path d="M0 0 C3.96 0 7.92 0 12 0 C11 4 11 4 9 6 C5.375 5.625 5.375 5.625 2 5 C1.34 3.35 0.68 1.7 0 0 Z " fill="#F7D1AF" transform="translate(234,133)"/>
<path d="M0 0 C5.55242428 0.73178574 10.73220144 2.34671062 16.0625 4 C17.8235506 4.543835 19.58525157 5.08556931 21.34765625 5.625 C22.12117432 5.86476563 22.89469238 6.10453125 23.69165039 6.3515625 C26.11105854 7.03119741 28.53075245 7.53720369 31 8 C31 8.33 31 8.66 31 9 C21.69635837 9.4228928 12.81273699 8.20849133 5 3 C3.34416775 2.30686092 1.67889021 1.63525576 0 1 C0 0.67 0 0.34 0 0 Z " fill="#F3B088" transform="translate(232,268)"/>
<path d="M0 0 C1.98 0.495 1.98 0.495 4 1 C4 1.99 4 2.98 4 4 C5.32 4.33 6.64 4.66 8 5 C8.33 6.98 8.66 8.96 9 11 C8.01 11.33 7.02 11.66 6 12 C5.34 11.67 4.68 11.34 4 11 C4 10.34 4 9.68 4 9 C2.68 8.67 1.36 8.34 0 8 C-0.33 6.35 -0.66 4.7 -1 3 C0.98 3.99 0.98 3.99 3 5 C3 4.01 3 3.02 3 2 C2.01 2 1.02 2 0 2 C0 1.34 0 0.68 0 0 Z " fill="#73422E" transform="translate(231,186)"/>
<path d="M0 0 C1.9375 0.625 1.9375 0.625 4 2 C4.75 5.125 4.75 5.125 5 8 C2.6739143 8.38063221 0.33944736 8.71269945 -2 9 C-3 8 -3 8 -3.25 5.625 C-3 3 -3 3 -1.5 1.1875 C-1.005 0.795625 -0.51 0.40375 0 0 Z " fill="#D09372" transform="translate(221,119)"/>
<path d="M0 0 C0.66 0 1.32 0 2 0 C2 4.62 2 9.24 2 14 C1.01 14 0.02 14 -1 14 C-2.51516221 10.96967558 -2.17028053 8.34885038 -2 5 C-1 2.0625 -1 2.0625 0 0 Z " fill="#F0B28D" transform="translate(309,274)"/>
<path d="M0 0 C0.99 0.01546875 0.99 0.01546875 2 0.03125 C2.66 0.0209375 3.32 0.010625 4 0 C6 0.53125 6 0.53125 10 4.53125 C4.72 4.53125 -0.56 4.53125 -6 4.53125 C-2 0.53125 -2 0.53125 0 0 Z " fill="#D6D6D6" transform="translate(159,311.46875)"/>
<path d="M0 0 C2.02558881 3.34939881 2.21738987 5.86962551 2.125 9.75 C2.10695312 10.73484375 2.08890625 11.7196875 2.0703125 12.734375 C2.03550781 13.85585937 2.03550781 13.85585937 2 15 C0.35 15 -1.3 15 -3 15 C-2.35812082 9.86496656 -1.31727753 5.0056546 0 0 Z " fill="#2C2423" transform="translate(201,112)"/>
<path d="M0 0 C2 1 2 1 2.8515625 3.07421875 C4.25894737 7.82947369 5.3961821 11.98169339 5 17 C4.01 16.34 3.02 15.68 2 15 C1.01 15.495 1.01 15.495 0 16 C0 10.72 0 5.44 0 0 Z " fill="#453D39" transform="translate(277,101)"/>
<path d="M0 0 C5.28 0 10.56 0 16 0 C15.67 0.99 15.34 1.98 15 3 C14.02160156 2.98259766 14.02160156 2.98259766 13.0234375 2.96484375 C8.2238086 2.91529006 3.72215315 3.00586249 -1 4 C-0.67 2.68 -0.34 1.36 0 0 Z " fill="#B49F97" transform="translate(202,348)"/>
<path d="M0 0 C0.33 0.99 0.66 1.98 1 3 C3.97 3.495 3.97 3.495 7 4 C5.125 8.875 5.125 8.875 4 10 C2.35 10 0.7 10 -1 10 C-0.67 6.7 -0.34 3.4 0 0 Z " fill="#EDA780" transform="translate(329,277)"/>
<path d="M0 0 C1.6260287 0.06000106 3.25101549 0.1487885 4.875 0.25 C6.23238281 0.31960938 6.23238281 0.31960938 7.6171875 0.390625 C10 1 10 1 11.3203125 3.046875 C11.54460937 3.69140625 11.76890625 4.3359375 12 5 C3.42857143 5.14285714 3.42857143 5.14285714 0 4 C0 2.68 0 1.36 0 0 Z " fill="#BEBEBE" transform="translate(385,350)"/>
<path d="M0 0 C0.66 0.33 1.32 0.66 2 1 C2 1.66 2 2.32 2 3 C1.01 3 0.02 3 -1 3 C-1.33 4.32 -1.66 5.64 -2 7 C-3.32 7 -4.64 7 -6 7 C-6.33 7.99 -6.66 8.98 -7 10 C-8.32 9.67 -9.64 9.34 -11 9 C-10.67 8.01 -10.34 7.02 -10 6 C-8.34302621 5.30959426 -6.6744239 4.6469365 -5 4 C-3.29705213 2.71332828 -1.62053812 1.38903267 0 0 Z " fill="#74412C" transform="translate(254,188)"/>
<path d="M0 0 C1.5 1.0625 1.5 1.0625 3 3 C3.1875 6.6875 3.1875 6.6875 3 10 C1.68 10 0.36 10 -1 10 C-1.125 3.375 -1.125 3.375 0 0 Z " fill="#D87748" transform="translate(239,105)"/>
<path d="M0 0 C0.66 0.33 1.32 0.66 2 1 C0.68 4.3 -0.64 7.6 -2 11 C-2.99 10.67 -3.98 10.34 -5 10 C-3.14285714 2.42857143 -3.14285714 2.42857143 0 0 Z " fill="#CBC7C6" transform="translate(103,323)"/>
<path d="M0 0 C5.94 0.33 11.88 0.66 18 1 C18 1.33 18 1.66 18 2 C11.4 2.66 4.8 3.32 -2 4 C-1.34 2.68 -0.68 1.36 0 0 Z " fill="#F7AD24" transform="translate(176,220)"/>
<path d="M0 0 C3.63 0.33 7.26 0.66 11 1 C10.01 2.32 9.02 3.64 8 5 C5.125 4.75 5.125 4.75 2 4 C1.34 2.68 0.68 1.36 0 0 Z " fill="#C6C4C4" transform="translate(281,355)"/>
<path d="M0 0 C4.95 0 9.9 0 15 0 C15 0.33 15 0.66 15 1 C11.7 1 8.4 1 5 1 C5 1.66 5 2.32 5 3 C4.21625 3.309375 3.4325 3.61875 2.625 3.9375 C0.07669872 4.92875038 0.07669872 4.92875038 -2 6 C-1.34 4.02 -0.68 2.04 0 0 Z " fill="#B69B91" transform="translate(104,348)"/>
<path d="M0 0 C-1.6875 2.0625 -1.6875 2.0625 -4 4 C-6.75 3.75 -6.75 3.75 -9 3 C-9.33 2.01 -9.66 1.02 -10 0 C-2.25 -1.125 -2.25 -1.125 0 0 Z " fill="#C6C5C5" transform="translate(447,356)"/>
<path d="M0 0 C-1.6875 2.0625 -1.6875 2.0625 -4 4 C-6.75 3.75 -6.75 3.75 -9 3 C-9.33 2.01 -9.66 1.02 -10 0 C-2.25 -1.125 -2.25 -1.125 0 0 Z " fill="#C6C5C4" transform="translate(346,356)"/>
<path d="M0 0 C0.33 0 0.66 0 1 0 C1 1.98 1 3.96 1 6 C-0.98 6.33 -2.96 6.66 -5 7 C-5.33 5.68 -5.66 4.36 -6 3 C-4.02 3 -2.04 3 0 3 C0 2.01 0 1.02 0 0 Z " fill="#AA7C64" transform="translate(261,121)"/>
<path d="M0 0 C0 0.66 0 1.32 0 2 C3.3 2.33 6.6 2.66 10 3 C10 3.33 10 3.66 10 4 C4.72 4 -0.56 4 -6 4 C-5.67 3.01 -5.34 2.02 -5 1 C-3 0 -3 0 0 0 Z " fill="#F1B18C" transform="translate(227,80)"/>
<path d="M0 0 C1.32 0.66 2.64 1.32 4 2 C3.21625 2.2475 2.4325 2.495 1.625 2.75 C-1.43941457 4.20924503 -1.61725761 5.05014956 -3 8 C-5.125 9.25 -5.125 9.25 -7 10 C-5.6062718 5.56541027 -3.39417765 3.12621626 0 0 Z " fill="#F2BA45" transform="translate(198,165)"/>
<path d="M0 0 C2.0625 0.4375 2.0625 0.4375 4 1 C4 2.32 4 3.64 4 5 C2.02 5 0.04 5 -2 5 C-1.125 1.125 -1.125 1.125 0 0 Z " fill="#EFA67D" transform="translate(257,119)"/>
<path d="M0 0 C2.13586678 3.20380017 2.23132175 4.01939967 2.125 7.6875 C2.10695313 8.49574219 2.08890625 9.30398438 2.0703125 10.13671875 C2.03550781 11.05904297 2.03550781 11.05904297 2 12 C0.02 11.34 -1.96 10.68 -4 10 C-2.68 9.67 -1.36 9.34 0 9 C0 6.03 0 3.06 0 0 Z " fill="#F2B43A" transform="translate(335,249)"/>
<path d="M0 0 C0.33 0.66 0.66 1.32 1 2 C-0.65 3.98 -2.3 5.96 -4 8 C-4.66 6.68 -5.32 5.36 -6 4 C-4.02 2.68 -2.04 1.36 0 0 Z " fill="#BAB5B3" transform="translate(406,337)"/>
<path d="M0 0 C5.75 0.75 5.75 0.75 8 3 C7.21625 3.309375 6.4325 3.61875 5.625 3.9375 C3.07669872 4.92875038 3.07669872 4.92875038 1 6 C0.67 4.02 0.34 2.04 0 0 Z " fill="#F5BB91" transform="translate(329,259)"/>
<path d="M0 0 C1.39195915 4.17587745 -0.17676781 6.13474776 -2 10 C-2.99 9.67 -3.98 9.34 -5 9 C-3.7508258 5.54074837 -2.32472205 2.85306797 0 0 Z " fill="#C7C3C1" transform="translate(200,327)"/>
<path d="M0 0 C0.66 0 1.32 0 2 0 C1.88590407 1.45922693 1.75834456 2.91740598 1.625 4.375 C1.55539062 5.18710937 1.48578125 5.99921875 1.4140625 6.8359375 C1 9 1 9 -1 11 C-1.02688151 9.35425434 -1.04634123 7.70838587 -1.0625 6.0625 C-1.07410156 5.14597656 -1.08570313 4.22945313 -1.09765625 3.28515625 C-1 1 -1 1 0 0 Z " fill="#F3BD98" transform="translate(309,274)"/>
<path d="M0 0 C1.2065625 0.0309375 1.2065625 0.0309375 2.4375 0.0625 C2.7675 0.7225 3.0975 1.3825 3.4375 2.0625 C-1.0175 3.5475 -1.0175 3.5475 -5.5625 5.0625 C-3.06867284 0.07484568 -3.06867284 0.07484568 0 0 Z " fill="#493D38" transform="translate(222.5625,108.9375)"/>
<path d="M0 0 C5.5 -0.36666667 5.5 -0.36666667 7.875 1.375 C9 3 9 3 9 5 C5.22454612 3.90931332 2.52956528 3.0916909 0 0 Z " fill="#50423A" transform="translate(254,109)"/>
<path d="M0 0 C0.66 0 1.32 0 2 0 C3.25 7.625 3.25 7.625 1 11 C1 9.35 1 7.7 1 6 C0.01 5.67 -0.98 5.34 -2 5 C-1.34 5 -0.68 5 0 5 C0 3.35 0 1.7 0 0 Z " fill="#834B2D" transform="translate(255,178)"/>
<path d="M0 0 C0.99 0.33 1.98 0.66 3 1 C1.6875 3 1.6875 3 0 5 C-0.99 5 -1.98 5 -3 5 C-3 5.66 -3 6.32 -3 7 C-3.66 6.67 -4.32 6.34 -5 6 C-3.35 4.02 -1.7 2.04 0 0 Z " fill="#F2B32F" transform="translate(158,238)"/>
<path d="M0 0 C0 0.66 0 1.32 0 2 C0.66 2 1.32 2 2 2 C2 2.66 2 3.32 2 4 C1.01 4.33 0.02 4.66 -1 5 C-1.66 4.67 -2.32 4.34 -3 4 C-3 3.34 -3 2.68 -3 2 C-3.99 1.67 -4.98 1.34 -6 1 C-4 0 -4 0 0 0 Z " fill="#7A4832" transform="translate(238,193)"/>
<path d="M0 0 C0.93045933 2.55144824 1.08564091 3.74006478 0.22265625 6.359375 C-0.16019531 7.14828125 -0.54304688 7.9371875 -0.9375 8.75 C-1.50791016 9.94882812 -1.50791016 9.94882812 -2.08984375 11.171875 C-2.39019531 11.77515625 -2.69054687 12.3784375 -3 13 C-3.33 13 -3.66 13 -4 13 C-3.50269348 8.02693484 -2.44697666 4.36200187 0 0 Z " fill="#C9BCB7" transform="translate(97,339)"/>
<path d="M0 0 C1.62418745 -0.08090971 3.24951745 -0.13914995 4.875 -0.1875 C5.77992188 -0.22230469 6.68484375 -0.25710938 7.6171875 -0.29296875 C8.79667969 -0.14794922 8.79667969 -0.14794922 10 0 C10.66 0.99 11.32 1.98 12 3 C7.53160785 3.21278058 4.17737474 2.59138085 0 1 C0 0.67 0 0.34 0 0 Z " fill="#D05F32" transform="translate(249,258)"/>
<path d="M0 0 C0.33 0 0.66 0 1 0 C2.61050328 8.03501094 2.61050328 8.03501094 0.0625 12.0625 C-0.618125 12.701875 -1.29875 13.34125 -2 14 C-1.855625 13.175 -1.71125 12.35 -1.5625 11.5 C-0.94746848 7.67313722 -0.46439363 3.84783293 0 0 Z " fill="#F0C99C" transform="translate(146,257)"/>
<path d="M0 0 C0.66 1.32 1.32 2.64 2 4 C2.99 4 3.98 4 5 4 C5.33 5.32 5.66 6.64 6 8 C4 7 2 6 0 5 C0 3.35 0 1.7 0 0 Z " fill="#582818" transform="translate(229,184)"/>
</svg>
